<svg width="250" height="250" viewBox="0 0 250 250" fill="none" xmlns="http://www.w3.org/2000/svg">
<rect width="250" height="250" fill="black"/>
<g filter="url(#filter0_d_16_36)">
<path fill-rule="evenodd" clip-rule="evenodd" d="M139 35H154V50H139V35ZM169 80H154V65V50H169V65V80ZM169 170V155V140V125V110V95V80H184V95V110V125V140V155V170H169ZM154 200V185V170H169V185V200H154ZM154 200V215H139V200H154ZM81 99H66V114V129V144H81H96H111V129V114V99H96H81Z" fill="#00FF70"/>
</g>
<defs>
<filter id="filter0_d_16_36" x="42" y="11" width="166" height="228" filterUnits="userSpaceOnUse" color-interpolation-filters="sRGB">
<feFlood flood-opacity="0" result="BackgroundImageFix"/>
<feColorMatrix in="SourceAlpha" type="matrix" values="0 0 0 0 0 0 0 0 0 0 0 0 0 0 0 0 0 0 127 0" result="hardAlpha"/>
<feOffset/>
<feGaussianBlur stdDeviation="12"/>
<feComposite in2="hardAlpha" operator="out"/>
<feColorMatrix type="matrix" values="0 0 0 0 0 0 0 0 0 1 0 0 0 0 0.439216 0 0 0 1 0"/>
<feBlend mode="normal" in2="BackgroundImageFix" result="effect1_dropShadow_16_36"/>
<feBlend mode="normal" in="SourceGraphic" in2="effect1_dropShadow_16_36" result="shape"/>
</filter>
</defs>
</svg>
